<?xml version="1.0" encoding="UTF-8" standalone="no"?>
<svg width="25px" height="25px" viewBox="0 0 25 25" version="1.1" xmlns="http://www.w3.org/2000/svg" xmlns:xlink="http://www.w3.org/1999/xlink">
    <!-- Generator: Sketch 3.7.2 (28276) - http://www.bohemiancoding.com/sketch -->
    <title>Page 1</title>
    <desc>Created with Sketch.</desc>
    <defs></defs>
    <g id="Get-Involved" stroke="none" stroke-width="1" fill="none" fill-rule="evenodd">
        <g transform="translate(-1020.000000, -773.000000)" id="CONTENT">
            <g transform="translate(525.000000, 523.000000)">
                <g id="SECONDARY-CONTENT" transform="translate(2.000000, 240.000000)">
                    <g id="Page-1" transform="translate(493.000000, 10.000000)">
                        <path d="M9.43233333,6.02066667 C9.43233333,6.98566667 10.2136667,7.767 11.1783333,7.767 C12.0506667,7.767 12.47,7.215 12.7553333,7.556 C12.9023333,7.73033333 12.9243333,7.95166667 12.9243333,8.61333333 L12.9243333,12.0376667 L15.8386667,12.0376667 C16.2656667,12.0376667 16.3266667,11.996 16.362,11.914 C16.4363333,11.7446667 16.285,11.4686667 16.285,10.832 C16.285,9.491 17.7006667,8.42066667 18.9426667,8.42066667 C20.1836667,8.42066667 21.5963333,9.43633333 21.5963333,10.832 C21.5963333,11.4686667 21.4466667,11.7446667 21.5196667,11.914 C21.556,11.996 21.616,12.0376667 22.043,12.0376667 L24.957,12.0376667 L24.957,1.427 C24.957,1.427 25,0.675666667 24.6433333,0.317666667 C24.2863333,-0.039 23.44,0.004 23.44,0.004 L12.9243333,0.004 L12.9243333,3.42833333 C12.9243333,4.09 12.901,4.31 12.7553333,4.48566667 C12.4686667,4.82666667 12.0493333,4.27466667 11.1783333,4.27466667 C10.2136667,4.27466667 9.43233333,5.05733333 9.43233333,6.02066667 L9.43233333,6.02066667 Z" id="Fill-1" fill="#F56867"></path>
                        <path d="M0.0443333333,12.0376667 L3.46866667,12.0376667 C4.129,12.0376667 4.35033333,12.06 4.526,12.207 C4.86733333,12.4933333 4.315,12.9113333 4.315,13.784 C4.315,14.7486667 5.09633333,15.53 6.06133333,15.53 C7.026,15.53 7.80733333,14.7473333 7.80733333,13.784 C7.80733333,12.9113333 7.25533333,12.4933333 7.59633333,12.207 C7.772,12.0613333 7.99233333,12.0376667 8.65366667,12.0376667 L12.0766667,12.0376667 L12.078,9.12366667 C12.078,8.69666667 12.0363333,8.63666667 11.9543333,8.60033333 C11.785,8.52733333 11.509,8.677 10.8723333,8.677 C9.53133333,8.677 8.461,7.26166667 8.461,6.02066667 C8.461,4.78 9.47666667,3.366 10.8723333,3.366 C11.509,3.366 11.785,3.51566667 11.9543333,3.44266667 C12.0363333,3.40633333 12.078,3.34633333 12.078,2.91933333 L12.078,0.00533333333 L1.741,0.00533333333 C1.741,0.00533333333 0.741,-0.065 0.356666667,0.319 C-0.026,0.703 0.0443333333,1.56266667 0.0443333333,1.56266667 L0.0443333333,12.0376667 Z" id="Fill-2" fill="#F56867"></path>
                        <path d="M15.569,18.9803333 C15.569,18.0156667 14.7876667,17.2343333 13.823,17.2343333 C12.9506667,17.2343333 12.5313333,17.7863333 12.246,17.4453333 C12.099,17.2696667 12.0766667,17.0493333 12.0766667,16.388 L12.0766667,12.9636667 L9.16266667,12.9623333 C8.73566667,12.9623333 8.67566667,13.004 8.63933333,13.086 C8.56633333,13.2553333 8.716,13.5313333 8.716,14.168 C8.716,15.509 7.30066667,16.5793333 6.06,16.5793333 C4.819,16.5793333 3.405,15.5636667 3.405,14.168 C3.405,13.5313333 3.55466667,13.2553333 3.48166667,13.086 C3.44666667,13.004 3.38533333,12.9623333 2.95833333,12.9623333 L0.0443333333,12.9623333 L0.0443333333,23.3386667 C0.0443333333,23.3386667 0.0246666667,24.2123333 0.403666667,24.591 C0.782666667,24.97 1.64466667,24.9946667 1.64466667,24.9946667 L12.078,24.9946667 L12.078,21.5716667 C12.078,20.9113333 12.1003333,20.69 12.2473333,20.5143333 C12.534,20.1733333 12.953,20.7253333 13.8243333,20.7253333 C14.7876667,20.7266667 15.569,19.944 15.569,18.9803333 L15.569,18.9803333 Z" id="Fill-3" fill="#FFB900"></path>
                        <path d="M24.957,23.3853333 L24.957,12.9623333 L21.5326667,12.9623333 C20.8723333,12.9623333 20.651,12.94 20.4753333,12.793 C20.134,12.5076667 20.6863333,12.0886667 20.6863333,11.216 C20.6863333,10.2513333 19.905,9.47 18.94,9.47 C17.9753333,9.47 17.194,10.2513333 17.194,11.216 C17.194,12.0886667 17.7446667,12.5066667 17.405,12.793 C17.2293333,12.94 17.009,12.9623333 16.3476667,12.9623333 L12.9243333,12.9623333 L12.9243333,15.8776667 C12.9243333,16.3046667 12.965,16.3646667 13.0483333,16.401 C13.2173333,16.474 13.4933333,16.3243333 14.1303333,16.3243333 C15.4713333,16.3243333 16.5416667,17.7396667 16.5416667,18.9803333 C16.5416667,20.2213333 15.526,21.6353333 14.1303333,21.6353333 C13.4933333,21.6353333 13.2173333,21.4856667 13.0483333,21.5586667 C12.966,21.5936667 12.9243333,21.655 12.9243333,22.082 L12.9243333,24.996 L23.3853333,24.996 C23.3853333,24.996 24.2683333,25.0573333 24.6433333,24.6823333 C25.0183333,24.3073333 24.957,23.3853333 24.957,23.3853333 L24.957,23.3853333 Z" id="Fill-4" fill="#F56867"></path>
                    </g>
                </g>
            </g>
        </g>
    </g>
</svg>