<?xml version="1.0" encoding="UTF-8" standalone="no"?>
<svg width="33px" height="31px" viewBox="0 0 33 31" version="1.1" xmlns="http://www.w3.org/2000/svg" xmlns:xlink="http://www.w3.org/1999/xlink">
    <!-- Generator: Sketch 3.7.2 (28276) - http://www.bohemiancoding.com/sketch -->
    <title>Fill 2</title>
    <desc>Created with Sketch.</desc>
    <defs></defs>
    <g id="About" stroke="none" stroke-width="1" fill="none" fill-rule="evenodd">
        <g id="About-(Design)" transform="translate(-570.000000, -2944.000000)" fill="#FFFFFF">
            <g id="SECONDARY-ACTIONS" transform="translate(-11.000000, 2906.000000)">
                <path d="M613.520347,58.4723088 L613.520347,40.8377844 C613.520347,39.2741551 612.233059,38 610.651668,38 L583.871825,38 C582.289647,38 581,39.271034 581,40.8377844 L581,58.4723088 C581,60.0359382 582.286502,61.3100932 583.871825,61.3100932 L599.657424,61.3100932 L610.221523,68.4938933 L610.086268,61.3100932 L610.651668,61.3100932 C612.233059,61.3100932 613.520347,60.0359382 613.520347,58.4723088 L613.520347,58.4723088 Z M606.882595,51.1269961 L595.61548,51.1269961 L595.61548,49.2988606 L606.882595,49.2988606 L606.882595,51.1269961 Z M606.882595,45.8516977 L587.447451,45.8516977 L587.447451,44.0227819 L606.882595,44.0227819 L606.882595,45.8516977 Z" id="Fill-2"></path>
            </g>
        </g>
    </g>
</svg>