<?xml version="1.0" encoding="UTF-8" standalone="no"?>
<svg width="35px" height="23px" viewBox="0 0 35 23" version="1.1" xmlns="http://www.w3.org/2000/svg" xmlns:xlink="http://www.w3.org/1999/xlink">
    <!-- Generator: Sketch 3.7.2 (28276) - http://www.bohemiancoding.com/sketch -->
    <title>Page 1</title>
    <desc>Created with Sketch.</desc>
    <defs></defs>
    <g id="Get-Involved" stroke="none" stroke-width="1" fill="none" fill-rule="evenodd">
        <g transform="translate(-532.000000, -773.000000)" id="CONTENT">
            <g transform="translate(525.000000, 523.000000)">
                <g id="SECONDARY-CONTENT" transform="translate(2.000000, 240.000000)">
                    <g id="Page-1" transform="translate(5.000000, 10.000000)">
                        <path d="M16.4565,1.68475 C14.9404167,0.919041667 13.2518333,0.449458333 11.4401042,0.449458333 C5.24639583,0.449458333 0.207958333,5.48789583 0.207958333,11.6816042 C0.207958333,17.8753125 5.24639583,22.9118333 11.4401042,22.9118333 C17.6338125,22.9118333 22.67225,17.8733958 22.67225,11.6796875 C22.67225,8.96185417 21.6636042,6.500375 20.05025,4.55591667 C19.368875,4.88702083 18.730625,5.2914375 18.1767083,5.79695833 C19.5576667,7.37677083 20.4244792,9.42041667 20.4244792,11.6796875 C20.4244792,16.6361875 16.3946875,20.6678958 11.4401042,20.6678958 C6.48552083,20.6678958 2.4538125,16.6381042 2.4538125,11.6796875 C2.4538125,6.72510417 6.48552083,2.6953125 11.4401042,2.6953125 C12.5613542,2.6953125 13.6265417,2.9253125 14.6165,3.30385417 C15.1761667,2.70297917 15.7861458,2.16008333 16.4565,1.68475" id="Fill-1" fill="#0095DD"></path>
                        <path d="M34.7079583,11.6796875 C34.7079583,5.48597917 29.6690417,0.447541667 23.4753333,0.447541667 C17.281625,0.447541667 12.2431875,5.48597917 12.2431875,11.6796875 C12.2431875,14.4013542 13.25375,16.8661875 14.8709375,18.811125 C15.5523125,18.4814583 16.177625,18.0602708 16.7334583,17.5571458 C15.3539375,15.9773333 14.4890417,13.9370417 14.4890417,11.6777708 C14.4890417,6.7231875 18.52075,2.69147917 23.4753333,2.69147917 C28.4299167,2.69147917 32.461625,6.72127083 32.461625,11.6777708 C32.461625,16.6342708 28.4318333,20.6640625 23.4753333,20.6640625 C22.3713333,20.6640625 21.32675,20.4374167 20.3478125,20.0708542 C19.7843125,20.6698125 19.1666667,21.2160625 18.4929583,21.691875 C20.001375,22.4460833 21.6765417,22.9084792 23.4753333,22.9084792 C29.667125,22.9118333 34.7079583,17.8733958 34.7079583,11.6796875" id="Fill-2" fill="#F56867"></path>
                    </g>
                </g>
            </g>
        </g>
    </g>
</svg>