<?xml version="1.0" encoding="UTF-8" standalone="no"?>
<svg width="9px" height="9px" viewBox="0 0 9 9" version="1.1" xmlns="http://www.w3.org/2000/svg" xmlns:xlink="http://www.w3.org/1999/xlink">
    <!-- Generator: Sketch 3.8.2 (29753) - http://www.bohemiancoding.com/sketch -->
    <title>Page 1</title>
    <desc>Created with Sketch.</desc>
    <defs></defs>
    <g id="About" stroke="none" stroke-width="1" fill="none" fill-rule="evenodd">
        <g id="About-(Design)" transform="translate(-899.000000, -2286.000000)" fill="#0095DD">
            <g id="CONTENT" transform="translate(432.000000, 540.000000)">
                <g id="RESOURCES" transform="translate(95.000000, 1319.000000)">
                    <g id="DEMOS" transform="translate(0.000000, 361.000000)">
                        <g id="CARD" transform="translate(237.000000, 41.000000)">
                            <g id="Page-1" transform="translate(135.000000, 25.000000)">
                                <path d="M8.58375,0.101869565 L5.73617647,0.101869565 C5.50760294,0.101869565 5.32310294,0.284347826 5.32310294,0.508956522 C5.32310294,0.734217391 5.50813235,0.916043478 5.73617647,0.916043478 L7.63147059,0.916043478 L3.57564706,4.91426087 C3.41430882,5.07326087 3.41430882,5.331 3.57564706,5.49052174 C3.65625,5.56995652 3.76226471,5.60973913 3.86775,5.60973913 C3.97323529,5.60973913 4.07911765,5.56995652 4.15985294,5.49052174 L8.17067647,1.53769565 L8.17067647,3.3153913 C8.17067647,3.54065217 8.35583824,3.72247826 8.58375,3.72247826 C8.81232353,3.72247826 8.99695588,3.54013043 8.99695588,3.3153913 L8.99695588,0.508956522 C8.99695588,0.284347826 8.81232353,0.101869565 8.58375,0.101869565 L8.58375,0.101869565 Z" id="Fill-1"></path>
                                <path d="M7.15433824,4.20391304 C6.92576471,4.20391304 6.74126471,4.3863913 6.74126471,4.61113043 L6.74126471,7.82504348 C6.74126471,7.97230435 6.615,8.0966087 6.46570588,8.0966087 L1.19580882,8.0966087 C1.04638235,8.0966087 0.92025,7.97230435 0.92025,7.82504348 L0.92025,2.63165217 C0.92025,2.4843913 1.04638235,2.36008696 1.19580882,2.36008696 L4.4685,2.36008696 C4.69694118,2.36008696 4.88157353,2.1776087 4.88157353,1.953 C4.88157353,1.72773913 4.69641176,1.54591304 4.4685,1.54591304 L1.19527941,1.54591304 C0.587382353,1.54591304 0.0930441176,2.03295652 0.0930441176,2.63217391 L0.0930441176,7.82556522 C0.0930441176,8.42478261 0.587382353,8.91182609 1.19527941,8.91182609 L6.46517647,8.91182609 C7.07307353,8.91182609 7.56741176,8.42478261 7.56741176,7.82556522 L7.56741176,4.61152174 C7.56741176,4.3863913 7.38225,4.20391304 7.15433824,4.20391304 L7.15433824,4.20391304 Z" id="Fill-2"></path>
                            </g>
                        </g>
                    </g>
                </g>
            </g>
        </g>
    </g>
</svg>