<?xml version="1.0" encoding="UTF-8" standalone="no"?>
<svg width="32px" height="32px" viewBox="0 0 32 32" version="1.1" xmlns="http://www.w3.org/2000/svg" xmlns:xlink="http://www.w3.org/1999/xlink">
    <!-- Generator: Sketch 3.7.2 (28276) - http://www.bohemiancoding.com/sketch -->
    <title>Page 1</title>
    <desc>Created with Sketch.</desc>
    <defs></defs>
    <g id="About" stroke="none" stroke-width="1" fill="none" fill-rule="evenodd">
        <g id="About-(Design)" transform="translate(-1051.000000, -2946.000000)" fill="#FFFFFF">
            <g id="SECONDARY-ACTIONS" transform="translate(-11.000000, 2906.000000)">
                <path d="M1063.9646,47.84608 L1073.63404,47.83596 C1073.69432,48.85324 1073.715,49.87932 1073.6996,50.90716 L1084.36432,50.95028 C1084.4246,49.91364 1084.44,48.87392 1084.39028,47.8254 L1092.7208,47.81528 C1092.9892,55.37756 1091.1654,62.715 1093.1146,70.1796 L1063.88892,71.10932 C1063.10704,63.36312 1064.80324,55.5254 1063.9646,47.84608 L1063.9646,47.84608 Z M1066.62352,68.17012 L1089.9092,68.10148 L1089.70636,67.005 L1066.62176,67.15636 L1066.62176,68.17012 L1066.62352,68.17012 Z M1066.29,65.9358 L1089.54136,65.39108 L1089.27296,64.3012 L1066.235,64.92336 L1066.29,65.9358 Z M1066.08716,63.31648 L1089.36756,63.09824 L1089.14096,62.00528 L1066.06648,62.30228 L1066.08716,63.31648 Z M1066.5012,59.72256 L1079.16704,59.85148 L1079.25284,58.83904 L1066.38988,58.61904 L1066.5012,59.72256 Z M1081.4062,60.00988 L1089.40892,59.89636 C1089.35392,58.07256 1089.33852,56.20432 1089.68744,53.93568 L1081.49244,53.93216 C1081.1642,55.91568 1081.17784,57.9454 1081.4062,60.00988 L1081.4062,60.00988 Z M1066.60284,57.42312 L1079.27352,57.22512 L1079.31796,56.21312 L1066.44972,56.32488 L1066.60284,57.42312 Z M1066.45148,54.7004 L1079.11688,54.9754 L1079.22336,53.96648 L1066.3604,53.59512 L1066.45148,54.7004 Z M1062,40 C1072.56,40.55528 1077.76256,40.02728 1091.82892,41.20824 C1092.26364,42.92864 1092.5162,44.63188 1092.64204,46.31796 L1084.26972,46.3162 C1084.15312,45.32312 1083.97228,44.32608 1083.70432,43.31188 L1072.91244,42.72404 C1073.19096,43.90852 1073.38148,45.10488 1073.50864,46.31136 L1063.76352,46.30256 C1063.43,44.18704 1062.87296,42.08472 1062,40 L1062,40 Z" id="Page-1"></path>
            </g>
        </g>
    </g>
</svg>