<?xml version="1.0" encoding="UTF-8" standalone="no"?>
<svg width="23px" height="19px" viewBox="0 0 23 19" version="1.1" xmlns="http://www.w3.org/2000/svg" xmlns:xlink="http://www.w3.org/1999/xlink">
    <!-- Generator: Sketch 3.7.2 (28276) - http://www.bohemiancoding.com/sketch -->
    <title>Page 1</title>
    <desc>Created with Sketch.</desc>
    <defs>
        <linearGradient x1="50%" y1="0%" x2="50%" y2="100%" id="linearGradient-1">
            <stop stop-color="#47484C" stop-opacity="0.6" offset="0%"></stop>
            <stop stop-color="#63656B" stop-opacity="0.6" offset="100%"></stop>
        </linearGradient>
        <path d="M1.61,11.3095238 L8.97,18.547619 C8.28,19 7.13,18.7738095 6.67,18.3214286 L0.69,12.4404762 C-0.23,11.5357143 -0.23,10.1785714 0.69,9.5 L8.51,1.58333333 C9.43,0.904761905 11.04,0.226190476 12.19,0.226190476 L1.61,10.4047619 C1.38,10.6309524 1.38,11.0833333 1.61,11.3095238 L1.61,11.3095238 Z" id="path-2"></path>
        <filter x="-50%" y="-50%" width="200%" height="200%" filterUnits="objectBoundingBox" id="filter-3">
            <feGaussianBlur stdDeviation="0.5" in="SourceAlpha" result="shadowBlurInner1"></feGaussianBlur>
            <feOffset dx="0" dy="1" in="shadowBlurInner1" result="shadowOffsetInner1"></feOffset>
            <feComposite in="shadowOffsetInner1" in2="SourceAlpha" operator="arithmetic" k2="-1" k3="1" result="shadowInnerInner1"></feComposite>
            <feColorMatrix values="0 0 0 0 0   0 0 0 0 0   0 0 0 0 0  0 0 0 0.224071558 0" type="matrix" in="shadowInnerInner1"></feColorMatrix>
        </filter>
        <path d="M20.93,0.226190476 L16.1,0.226190476 C14.95,0.226190476 13.57,0.904761905 12.65,1.58333333 L4.6,9.5 C3.91,10.1785714 3.91,11.5357143 4.6,12.4404762 L10.58,18.3214286 C11.5,19 12.65,19 13.57,18.3214286 L21.62,10.4047619 C22.31,9.5 23,7.91666667 23,7.01190476 L23,2.26190476 C23,1.13095238 22.08,0.226190476 20.93,0.226190476 L20.93,0.226190476 Z M18.17,7.01190476 L18.17,7.01190476 C17.02,7.01190476 16.1,6.10714286 16.1,4.97619048 C16.1,3.8452381 17.02,2.94047619 18.17,2.94047619 C19.32,2.94047619 20.24,3.8452381 20.24,4.97619048 C20.24,6.10714286 19.32,7.01190476 18.17,7.01190476 L18.17,7.01190476 Z" id="path-4"></path>
        <filter x="-50%" y="-50%" width="200%" height="200%" filterUnits="objectBoundingBox" id="filter-5">
            <feGaussianBlur stdDeviation="0.5" in="SourceAlpha" result="shadowBlurInner1"></feGaussianBlur>
            <feOffset dx="0" dy="1" in="shadowBlurInner1" result="shadowOffsetInner1"></feOffset>
            <feComposite in="shadowOffsetInner1" in2="SourceAlpha" operator="arithmetic" k2="-1" k3="1" result="shadowInnerInner1"></feComposite>
            <feColorMatrix values="0 0 0 0 0   0 0 0 0 0   0 0 0 0 0  0 0 0 0.224071558 0" type="matrix" in="shadowInnerInner1"></feColorMatrix>
        </filter>
    </defs>
    <g id="Home" stroke="none" stroke-width="1" fill="none" fill-rule="evenodd">
        <g id="Home-page" transform="translate(-528.000000, -1662.000000)">
            <g id="POSTS" transform="translate(526.000000, 576.000000)">
                <g id="POST">
                    <g id="TAGS" transform="translate(2.000000, 1077.000000)">
                        <g id="Page-1" transform="translate(0.000000, 9.000000)">
                            <g id="Fill-1">
                                <use fill="url(#linearGradient-1)" fill-rule="evenodd" xlink:href="#path-2"></use>
                                <use fill="black" fill-opacity="1" filter="url(#filter-3)" xlink:href="#path-2"></use>
                            </g>
                            <g id="Fill-2">
                                <use fill="url(#linearGradient-1)" fill-rule="evenodd" xlink:href="#path-4"></use>
                                <use fill="black" fill-opacity="1" filter="url(#filter-5)" xlink:href="#path-4"></use>
                            </g>
                        </g>
                    </g>
                </g>
            </g>
        </g>
    </g>
</svg>