<?xml version="1.0" encoding="UTF-8" standalone="no"?>
<svg width="11px" height="11px" viewBox="0 0 11 11" version="1.1" xmlns="http://www.w3.org/2000/svg" xmlns:xlink="http://www.w3.org/1999/xlink">
    <!-- Generator: Sketch 3.7.2 (28276) - http://www.bohemiancoding.com/sketch -->
    <title>Page 1</title>
    <desc>Created with Sketch.</desc>
    <defs></defs>
    <g id="About" stroke="none" stroke-width="1" fill="none" fill-rule="evenodd">
        <g id="About-(Design)" transform="translate(-1362.000000, -3185.000000)" fill="#47C2FF">
            <g id="FOOTER" transform="translate(429.000000, 3161.000000)">
                <g id="Page-1" transform="translate(933.000000, 24.000000)">
                    <path d="M3.04392,9.49153333 C3.04392,10.3246 2.37585333,11 1.55202667,11 C0.727613333,11 0.0595466667,10.3246 0.0595466667,9.49153333 C0.0595466667,8.65846667 0.727613333,7.98306667 1.55202667,7.98306667 C2.37585333,7.98306667 3.04392,8.65846667 3.04392,9.49153333" id="Fill-1"></path>
                    <path d="M7.27202667,11 L5.15797333,11 C5.15797333,8.1532 2.8754,5.8454 0.0595466667,5.8454 L0.0595466667,3.70846667 C4.04301333,3.70846667 7.27202667,6.97297333 7.27202667,11 L7.27202667,11 Z" id="Fill-2"></path>
                    <path d="M8.76450667,11 C8.76450667,6.13990667 4.86757333,2.2 0.0595466667,2.2 L0.0595466667,0 C6.06892,0 10.9404533,4.92477333 10.9404533,11 L8.76450667,11 Z" id="Fill-3"></path>
                </g>
            </g>
        </g>
    </g>
</svg>