<?xml version="1.0" encoding="UTF-8" standalone="no"?>
<svg width="17px" height="17px" viewBox="0 0 17 17" version="1.1" xmlns="http://www.w3.org/2000/svg" xmlns:xlink="http://www.w3.org/1999/xlink">
    <!-- Generator: Sketch 3.8.3 (29802) - http://www.bohemiancoding.com/sketch -->
    <title>Fill 1</title>
    <desc>Created with Sketch.</desc>
    <defs></defs>
    <g id="Home" stroke="none" stroke-width="1" fill="none" fill-rule="evenodd">
        <g id="Helpful-Resources-Dropdown" transform="translate(-1186.000000, -86.000000)" fill="#9A9B9E">
            <g id="HEADER">
                <path d="M1202.59954,101.667 L1197.94094,96.9909754 C1198.83055,95.8549764 1199.37987,94.4349776 1199.37987,92.8829504 C1199.37987,89.2283152 1196.40759,86.2749701 1192.77189,86.2749701 C1189.13695,86.2749701 1186.14624,89.2469961 1186.14624,92.8829504 C1186.14624,96.5176425 1189.11826,99.4906782 1192.75422,99.4906782 C1194.30625,99.4906782 1195.72625,98.9602929 1196.86224,98.0519985 L1201.53827,102.728276 C1201.69024,102.879995 1201.87957,102.95497 1202.06891,102.95497 C1202.25824,102.95497 1202.44757,102.878985 1202.59954,102.728276 C1202.90222,102.444276 1202.90222,101.951 1202.59954,101.667 L1202.59954,101.667 Z M1187.6609,92.8829504 C1187.6609,90.0616337 1189.95158,87.7896356 1192.75422,87.7896356 C1195.5566,87.7896356 1197.84728,90.0803145 1197.84728,92.8829504 C1197.84728,95.6843241 1195.57427,97.9949461 1192.75422,97.9949461 C1189.9329,97.9949461 1187.6609,95.7030049 1187.6609,92.8829504 L1187.6609,92.8829504 Z" id="Fill-1"></path>
            </g>
        </g>
    </g>
</svg>