<?xml version="1.0" encoding="UTF-8" standalone="no"?>
<svg width="53px" height="53px" viewBox="0 0 53 53" version="1.1" xmlns="http://www.w3.org/2000/svg" xmlns:xlink="http://www.w3.org/1999/xlink">
    <!-- Generator: Sketch 3.8.3 (29802) - http://www.bohemiancoding.com/sketch -->
    <title>Page 1</title>
    <desc>Created with Sketch.</desc>
    <defs></defs>
    <g id="Page-1" stroke="none" stroke-width="1" fill="none" fill-rule="evenodd">
        <path d="M44.9067503,8.08987478 C34.6327503,-2.18312522 17.9807503,-2.18012522 7.70675029,8.08987478 C-2.56624971,18.3668748 -2.57024971,35.0198748 7.70275029,45.2928748 C17.9767503,55.5668748 34.6327503,55.5698748 44.9097503,45.2968748 C55.1837503,35.0278748 55.1797503,18.3668748 44.9067503,8.08987478 L44.9067503,8.08987478 Z M36.8207503,37.2148748 C35.6167503,38.4178748 33.6677503,38.4218748 32.4687503,37.2188748 L26.2967503,31.0468748 L20.1447503,37.2028748 C18.9377503,38.4098748 16.9957503,38.4138748 15.7887503,37.2108748 C14.5857503,36.0078748 14.5857503,34.0588748 15.7967503,32.8558748 L21.9497503,26.6988748 L15.7927503,20.5388748 C14.5857503,19.3318748 14.5937503,17.3868748 15.7967503,16.1878748 C16.9997503,14.9808748 18.9417503,14.9808748 20.1447503,16.1878748 L26.3007503,22.3438748 L32.4607503,16.1838748 C33.6677503,14.9768748 35.6097503,14.9808748 36.8087503,16.1838748 C38.0157503,17.3908748 38.0157503,19.3278748 36.8087503,20.5308748 L30.6487503,26.6918748 L36.8207503,32.8628748 C38.0197503,34.0668748 38.0237503,36.0118748 36.8207503,37.2148748 L36.8207503,37.2148748 Z" fill="#FFFFFF"></path>
    </g>
</svg>