<?xml version="1.0" encoding="UTF-8" standalone="no"?>
<svg width="53px" height="33px" viewBox="0 0 53 33" version="1.1" xmlns="http://www.w3.org/2000/svg" xmlns:xlink="http://www.w3.org/1999/xlink">
    <!-- Generator: Sketch 3.8.2 (29753) - http://www.bohemiancoding.com/sketch -->
    <title>ICON</title>
    <desc>Created with Sketch.</desc>
    <defs></defs>
    <g id="About" stroke="none" stroke-width="1" fill="none" fill-rule="evenodd">
        <g id="About-(Design)" transform="translate(-791.000000, -1866.000000)">
            <g id="CONTENT" transform="translate(432.000000, 540.000000)">
                <g id="RESOURCES" transform="translate(95.000000, 1319.000000)">
                    <g id="ICON" transform="translate(264.000000, 7.000000)">
                        <path d="M10.7221164,32.4635581 L19.2052685,32.4635581 L19.2052685,0.497302326 L10.7221164,0.497302326 L10.7221164,32.4635581 Z M12.0822059,2.51797674 L17.8420844,2.51797674 L17.8420844,3.33683721 L12.0822059,3.33683721 L12.0822059,2.51797674 Z M12.0822059,4.48186047 L17.8420844,4.48186047 L17.8420844,5.29995349 L12.0822059,5.29995349 L12.0822059,4.48186047 Z M12.0822059,29.6301628 L17.8420844,29.6301628 L17.8420844,30.4490233 L12.0822059,30.4490233 L12.0822059,29.6301628 Z" id="Fill-1" fill="#F56867"></path>
                        <path d="M0.580242967,32.5026977 L9.06030051,32.5026977 L9.06030051,0.53644186 L0.580242967,0.53644186 L0.580242967,32.5026977 Z M1.93723785,2.55711628 L7.700211,2.55711628 L7.700211,3.3752093 L1.93723785,3.3752093 L1.93723785,2.55711628 Z M1.93723785,4.521 L7.700211,4.521 L7.700211,5.33909302 L1.93723785,5.33909302 L1.93723785,4.521 Z M1.93723785,29.6662326 L7.700211,29.6662326 L7.700211,30.485093 L1.93723785,30.485093 L1.93723785,29.6662326 Z" id="Fill-2" fill="#F56867"></path>
                        <path d="M20.8647634,0.497302326 L20.8647634,32.4635581 L29.344821,32.4635581 L29.344821,0.497302326 L20.8647634,0.497302326 Z M27.9847315,30.4459535 L22.2217583,30.4459535 L22.2217583,29.627093 L27.9847315,29.627093 L27.9847315,30.4459535 Z M27.9847315,5.29995349 L22.2217583,5.29995349 L22.2217583,4.48186047 L27.9847315,4.48186047 L27.9847315,5.29995349 Z M27.9847315,3.33683721 L22.2217583,3.33683721 L22.2217583,2.51797674 L27.9847315,2.51797674 L27.9847315,3.33683721 Z" id="Fill-3" fill="#F56867"></path>
                        <path d="M36.6914706,0.575581395 L29.3479156,4.78423256 L45.458555,32.4635581 L52.80211,28.2572093 L36.6914706,0.575581395 Z M31.538913,5.85481395 L36.5282289,2.99762791 L36.9421355,3.71134884 L31.9497251,6.56853488 L31.538913,5.85481395 Z M37.5192839,4.69444186 L37.9331905,5.40509302 L32.9407801,8.26227907 L37.5192839,4.69444186 Z M45.2047954,29.3339302 L50.1972059,26.4767442 L50.6080179,27.1873953 L45.618702,30.043814 L45.2047954,29.3339302 Z" id="Fill-4" fill="#FFB900"></path>
                    </g>
                </g>
            </g>
        </g>
    </g>
</svg>