<?xml version="1.0" encoding="UTF-8" standalone="no"?>
<svg width="12px" height="11px" viewBox="0 0 12 11" version="1.1" xmlns="http://www.w3.org/2000/svg" xmlns:xlink="http://www.w3.org/1999/xlink">
    <!-- Generator: Sketch 3.7.2 (28276) - http://www.bohemiancoding.com/sketch -->
    <title>Page 1</title>
    <desc>Created with Sketch.</desc>
    <defs></defs>
    <g id="Home" stroke="none" stroke-width="1" fill="none" fill-rule="evenodd">
        <g id="Home-page" transform="translate(-649.000000, -3927.000000)" fill="#0095DD">
            <g id="SECONDARY-ACTIONS" transform="translate(-11.000000, 3802.000000)">
                <g id="Group-3" transform="translate(541.000000, 109.000000)">
                    <path d="M129.630127,18.0269952 C129.631474,17.8114304 129.571183,17.6258426 129.471148,17.4692214 C129.425003,17.3968051 129.381554,17.3442612 129.334399,17.2967696 C129.286907,17.2496148 129.234363,17.206165 129.177778,17.1691148 C129.005326,17.0599852 128.819738,16.9996944 128.621014,16.9996944 C128.615962,16.9996944 123.064833,17.0007049 123.064833,17.0007049 C122.509753,17.0007049 122.054373,17.4560854 122.054373,18.0111646 C122.054373,18.5665807 122.509753,19.0216244 123.064833,19.0216244 L126.181764,19.0216244 L121.295181,23.9055133 C120.901775,24.298919 120.901775,24.9412346 121.295181,25.3346403 C121.688587,25.7280459 122.330902,25.7280459 122.724308,25.3346403 L127.608197,20.4507513 L127.608197,23.5676829 C127.608197,24.1227622 128.06324,24.5781427 128.618656,24.5781427 C129.175083,24.5767954 129.630127,24.1227622 129.630127,23.5663357 L129.630127,18.0269952 Z" id="Page-1" transform="translate(125.315138, 21.314694) rotate(-315.000000) translate(-125.315138, -21.314694) "></path>
                </g>
            </g>
        </g>
    </g>
</svg>