<?xml version="1.0" encoding="UTF-8" standalone="no"?>
<svg width="344px" height="245px" viewBox="0 0 344 245" version="1.1" xmlns="http://www.w3.org/2000/svg" xmlns:xlink="http://www.w3.org/1999/xlink">
    <!-- Generator: Sketch 3.7.2 (28276) - http://www.bohemiancoding.com/sketch -->
    <title>ILLUSTRATION</title>
    <desc>Created with Sketch.</desc>
    <defs>
        <circle id="path-1" cx="40" cy="40" r="40"></circle>
        <circle id="path-3" cx="40" cy="40" r="40"></circle>
        <circle id="path-5" cx="40" cy="40" r="40"></circle>
        <circle id="path-7" cx="40" cy="40" r="40"></circle>
        <circle id="path-9" cx="40" cy="40" r="40"></circle>
        <circle id="path-11" cx="40" cy="40" r="40"></circle>
        <rect id="path-13" x="0.179487179" y="0.294871795" width="9.73076923" height="16.0769231"></rect>
    </defs>
    <g id="About" stroke="none" stroke-width="1" fill="none" fill-rule="evenodd">
        <g id="About-(Design)" transform="translate(-829.000000, -239.000000)">
            <g id="ILLUSTRATION" transform="translate(829.000000, 240.000000)">
                <g id="LINES" transform="translate(18.000000, 9.000000)" stroke="#D9D9D9" stroke-width="2">
                    <path d="M23,26.5 L23,1.5" id="Line" stroke-linecap="square"></path>
                    <path d="M23.5,1 L220.522842,1" id="Line" stroke-linecap="square"></path>
                    <path d="M220,2.5 L220,129.649994" id="Line" stroke-linecap="square"></path>
                    <path d="M220.5,130 L155.5,130" id="Line" stroke-linecap="square"></path>
                    <path d="M155,131.5 L155,168.5" id="Line" stroke-linecap="square"></path>
                    <path d="M22,158.5 L22,145.5" id="Line" stroke-linecap="square" stroke-dasharray="2,6,2,6"></path>
                    <path d="M22.5,145 L229.539993,145" id="Line" stroke-linecap="round" stroke-linejoin="round" stroke-dasharray="2,6,2,6"></path>
                    <path d="M276,30.5 L276,16.3578644" id="Line" stroke-linecap="round" stroke-linejoin="round" stroke-dasharray="2,6,2,6"></path>
                    <path d="M278.5,17 L80.4772741,17" id="Line" stroke-linecap="round" stroke-linejoin="round" stroke-dasharray="2,6,2,6"></path>
                    <path d="M1,170.5 L1,130.450031" id="Line" stroke-linecap="square"></path>
                    <path d="M288,157.5 L288,99.5" id="Line" stroke-linecap="round" stroke-linejoin="round"></path>
                    <path d="M0.5,129 L136.5,129" id="Line" stroke-linecap="square"></path>
                    <path d="M137,129.5 L137,94.5" id="Line" stroke-linecap="square"></path>
                    <path d="M308,36.5 L308,18.3700008" id="Line" stroke-linecap="square"></path>
                </g>
                <path d="M92.6522874,31.7420453 L92.6522874,21.6276324 C92.6522874,20.7308011 91.9139536,20 91.0069351,20 L75.6471564,20 C74.7396869,20 74,20.729011 74,21.6276324 L74,31.7420453 C74,32.6388766 74.7378828,33.3696777 75.6471564,33.3696777 L84.7011044,33.3696777 L90.7602225,37.4899998 L90.6826456,33.3696777 L91.0069351,33.3696777 C91.9139536,33.3696777 92.6522874,32.6388766 92.6522874,31.7420453 L92.6522874,31.7420453 Z M88.8451551,27.5290864 L82.3828174,27.5290864 L82.3828174,26.4805457 L88.8451551,26.4805457 L88.8451551,27.5290864 Z M88.8451551,24.5033997 L77.6979834,24.5033997 L77.6979834,23.4544114 L88.8451551,23.4544114 L88.8451551,24.5033997 Z" id="Fill-2" fill="#555555"></path>
                <path d="M274.652287,158.742045 L274.652287,148.627632 C274.652287,147.730801 273.913954,147 273.006935,147 L257.647156,147 C256.739687,147 256,147.729011 256,148.627632 L256,158.742045 C256,159.638877 256.737883,160.369678 257.647156,160.369678 L266.701104,160.369678 L272.760222,164.49 L272.682646,160.369678 L273.006935,160.369678 C273.913954,160.369678 274.652287,159.638877 274.652287,158.742045 L274.652287,158.742045 Z M270.845155,154.529086 L264.382817,154.529086 L264.382817,153.480546 L270.845155,153.480546 L270.845155,154.529086 Z M270.845155,151.5034 L259.697983,151.5034 L259.697983,150.454411 L270.845155,150.454411 L270.845155,151.5034 Z" id="Fill-2" fill="#555555" transform="translate(265.326144, 155.745000) scale(-1, 1) translate(-265.326144, -155.745000) "></path>
                <g id="Oval-22-Copy-3-+-head" transform="translate(132.000000, 33.000000)">
                    <mask id="mask-2" fill="white">
                        <use xlink:href="#path-1"></use>
                    </mask>
                    <use id="Mask" fill="#4990E2" xlink:href="#path-1"></use>
                    <polygon id="Path-142" fill-opacity="0.3" fill="#225693" mask="url(#mask-2)" points="33.4025 66.7675 71.1415677 104.506568 106.502585 67.86555 55.3644968 16.7274615 44.04 36.6125"></polygon>
                    <g id="head" mask="url(#mask-2)" fill="#88EBFF">
                        <g transform="translate(14.720000, 11.200000)" id="Stroke-175">
                            <path d="M0.287774202,29.6643142 L5.18756356,21.9161242 C5.18756356,21.9161242 5.44793377,20.1258248 4.94871589,15.8372747 C4.3508093,10.7114363 10.445362,3.44079915 15.5829491,1.77145877 C20.7215861,0.102642031 30.0424196,-0.612116316 35.0618953,1.6525942 C40.3842613,4.05397279 45.2226327,7.61257918 46.2977097,17.0290622 C47.395884,26.634053 44.2656672,31.8101601 41.3963455,35.14727 C38.5275488,38.4854271 37.4519468,40.749614 39.3637781,45.5172878 C41.2771841,50.2854852 43.9071332,57.0801404 43.9071332,57.0801404 L17.6149916,56.8418876 C17.6149916,56.8418876 19.4071365,52.1925547 19.4071365,50.2854852 C19.4071365,48.3784157 18.6585722,46.8530743 17.3761439,45.7560642 C15.7026354,44.3260239 13.9104905,44.9219176 11.5204389,44.9219176 C9.13091236,44.9219176 5.90410657,45.5172878 5.06735232,43.6107419 C4.231123,41.7036724 5.42641123,39.3195736 5.06735232,38.8425444 C4.70986822,38.3655152 4.58965697,37.8890097 4.11196163,37.6507569 C3.63426629,37.4125041 4.231123,36.5778339 4.231123,36.5778339 L4.70986822,35.9814165 C4.70986822,35.9814165 3.51405505,35.14727 3.27520738,34.5513762 C3.03635971,33.9554824 3.87311396,33.2402004 3.99227533,33.1213359 C4.11196163,33.0019477 4.11196163,31.9290247 4.11196163,31.9290247 C4.11196163,31.9290247 1.00536709,31.3336546 0.287774202,29.6643142 L0.287774202,29.6643142 Z"></path>
                        </g>
                    </g>
                </g>
                <g id="Oval-22-Copy-3-+-head" transform="translate(264.000000, 33.000000)">
                    <mask id="mask-4" fill="white">
                        <use xlink:href="#path-3"></use>
                    </mask>
                    <use id="Mask" fill="#73D975" xlink:href="#path-3"></use>
                    <polygon id="Path-142" fill="#6BCA6C" mask="url(#mask-4)" points="33.4025 66.7675 71.1415677 104.506568 106.502585 67.86555 55.3644968 16.7274615 44.04 36.6125"></polygon>
                    <g id="head" mask="url(#mask-4)" fill="#FFDA73">
                        <g transform="translate(14.720000, 11.200000)" id="Stroke-175">
                            <path d="M0.287774202,29.6643142 L5.18756356,21.9161242 C5.18756356,21.9161242 5.44793377,20.1258248 4.94871589,15.8372747 C4.3508093,10.7114363 10.445362,3.44079915 15.5829491,1.77145877 C20.7215861,0.102642031 30.0424196,-0.612116316 35.0618953,1.6525942 C40.3842613,4.05397279 45.2226327,7.61257918 46.2977097,17.0290622 C47.395884,26.634053 44.2656672,31.8101601 41.3963455,35.14727 C38.5275488,38.4854271 37.4519468,40.749614 39.3637781,45.5172878 C41.2771841,50.2854852 43.9071332,57.0801404 43.9071332,57.0801404 L17.6149916,56.8418876 C17.6149916,56.8418876 19.4071365,52.1925547 19.4071365,50.2854852 C19.4071365,48.3784157 18.6585722,46.8530743 17.3761439,45.7560642 C15.7026354,44.3260239 13.9104905,44.9219176 11.5204389,44.9219176 C9.13091236,44.9219176 5.90410657,45.5172878 5.06735232,43.6107419 C4.231123,41.7036724 5.42641123,39.3195736 5.06735232,38.8425444 C4.70986822,38.3655152 4.58965697,37.8890097 4.11196163,37.6507569 C3.63426629,37.4125041 4.231123,36.5778339 4.231123,36.5778339 L4.70986822,35.9814165 C4.70986822,35.9814165 3.51405505,35.14727 3.27520738,34.5513762 C3.03635971,33.9554824 3.87311396,33.2402004 3.99227533,33.1213359 C4.11196163,33.0019477 4.11196163,31.9290247 4.11196163,31.9290247 C4.11196163,31.9290247 1.00536709,31.3336546 0.287774202,29.6643142 L0.287774202,29.6643142 Z"></path>
                        </g>
                    </g>
                </g>
                <g id="Oval-22-Copy-3-+-head" transform="translate(0.000000, 33.000000)">
                    <mask id="mask-6" fill="white">
                        <use xlink:href="#path-5"></use>
                    </mask>
                    <use id="Mask" fill="#F56867" xlink:href="#path-5"></use>
                    <polygon id="Path-142" fill="#D75A5A" mask="url(#mask-6)" points="33.4025 66.7675 71.1415677 104.506568 106.502585 67.86555 55.3644968 16.7274615 44.04 36.6125"></polygon>
                    <g id="head" mask="url(#mask-6)" fill="#FFDA73">
                        <g transform="translate(14.720000, 11.200000)" id="Stroke-175">
                            <path d="M0.287774202,29.6643142 L5.18756356,21.9161242 C5.18756356,21.9161242 5.44793377,20.1258248 4.94871589,15.8372747 C4.3508093,10.7114363 10.445362,3.44079915 15.5829491,1.77145877 C20.7215861,0.102642031 30.0424196,-0.612116316 35.0618953,1.6525942 C40.3842613,4.05397279 45.2226327,7.61257918 46.2977097,17.0290622 C47.395884,26.634053 44.2656672,31.8101601 41.3963455,35.14727 C38.5275488,38.4854271 37.4519468,40.749614 39.3637781,45.5172878 C41.2771841,50.2854852 43.9071332,57.0801404 43.9071332,57.0801404 L17.6149916,56.8418876 C17.6149916,56.8418876 19.4071365,52.1925547 19.4071365,50.2854852 C19.4071365,48.3784157 18.6585722,46.8530743 17.3761439,45.7560642 C15.7026354,44.3260239 13.9104905,44.9219176 11.5204389,44.9219176 C9.13091236,44.9219176 5.90410657,45.5172878 5.06735232,43.6107419 C4.231123,41.7036724 5.42641123,39.3195736 5.06735232,38.8425444 C4.70986822,38.3655152 4.58965697,37.8890097 4.11196163,37.6507569 C3.63426629,37.4125041 4.231123,36.5778339 4.231123,36.5778339 L4.70986822,35.9814165 C4.70986822,35.9814165 3.51405505,35.14727 3.27520738,34.5513762 C3.03635971,33.9554824 3.87311396,33.2402004 3.99227533,33.1213359 C4.11196163,33.0019477 4.11196163,31.9290247 4.11196163,31.9290247 C4.11196163,31.9290247 1.00536709,31.3336546 0.287774202,29.6643142 L0.287774202,29.6643142 Z"></path>
                        </g>
                    </g>
                </g>
                <g id="Oval-22-Copy-3-+-head" transform="translate(40.000000, 204.000000) scale(-1, 1) translate(-40.000000, -204.000000) translate(0.000000, 164.000000)">
                    <mask id="mask-8" fill="white">
                        <use xlink:href="#path-7"></use>
                    </mask>
                    <use id="Mask" fill="#E6E6E6" xlink:href="#path-7"></use>
                    <polygon id="Path-142" fill-opacity="0.3" fill="#C2C2C2" mask="url(#mask-8)" points="33.4025 66.7675 71.1415677 104.506568 106.502585 67.86555 55.3644968 16.7274615 44.04 36.6125"></polygon>
                    <g id="head" mask="url(#mask-8)" fill="#F56867">
                        <g transform="translate(14.720000, 11.200000)" id="Stroke-175">
                            <path d="M0.287774202,29.6643142 L5.18756356,21.9161242 C5.18756356,21.9161242 5.44793377,20.1258248 4.94871589,15.8372747 C4.3508093,10.7114363 10.445362,3.44079915 15.5829491,1.77145877 C20.7215861,0.102642031 30.0424196,-0.612116316 35.0618953,1.6525942 C40.3842613,4.05397279 45.2226327,7.61257918 46.2977097,17.0290622 C47.395884,26.634053 44.2656672,31.8101601 41.3963455,35.14727 C38.5275488,38.4854271 37.4519468,40.749614 39.3637781,45.5172878 C41.2771841,50.2854852 43.9071332,57.0801404 43.9071332,57.0801404 L17.6149916,56.8418876 C17.6149916,56.8418876 19.4071365,52.1925547 19.4071365,50.2854852 C19.4071365,48.3784157 18.6585722,46.8530743 17.3761439,45.7560642 C15.7026354,44.3260239 13.9104905,44.9219176 11.5204389,44.9219176 C9.13091236,44.9219176 5.90410657,45.5172878 5.06735232,43.6107419 C4.231123,41.7036724 5.42641123,39.3195736 5.06735232,38.8425444 C4.70986822,38.3655152 4.58965697,37.8890097 4.11196163,37.6507569 C3.63426629,37.4125041 4.231123,36.5778339 4.231123,36.5778339 L4.70986822,35.9814165 C4.70986822,35.9814165 3.51405505,35.14727 3.27520738,34.5513762 C3.03635971,33.9554824 3.87311396,33.2402004 3.99227533,33.1213359 C4.11196163,33.0019477 4.11196163,31.9290247 4.11196163,31.9290247 C4.11196163,31.9290247 1.00536709,31.3336546 0.287774202,29.6643142 L0.287774202,29.6643142 Z"></path>
                        </g>
                    </g>
                </g>
                <g id="Oval-22-Copy-3-+-head" transform="translate(172.000000, 204.000000) scale(-1, 1) translate(-172.000000, -204.000000) translate(132.000000, 164.000000)">
                    <mask id="mask-10" fill="white">
                        <use xlink:href="#path-9"></use>
                    </mask>
                    <use id="Mask" fill="#316B97" xlink:href="#path-9"></use>
                    <polygon id="Path-142" fill="#204663" mask="url(#mask-10)" points="33.4025 66.7675 71.1415677 104.506568 106.502585 67.86555 55.3644968 16.7274615 44.04 36.6125"></polygon>
                    <g id="head" mask="url(#mask-10)" fill="#FFDA73">
                        <g transform="translate(14.720000, 11.200000)" id="Stroke-175">
                            <path d="M0.287774202,29.6643142 L5.18756356,21.9161242 C5.18756356,21.9161242 5.44793377,20.1258248 4.94871589,15.8372747 C4.3508093,10.7114363 10.445362,3.44079915 15.5829491,1.77145877 C20.7215861,0.102642031 30.0424196,-0.612116316 35.0618953,1.6525942 C40.3842613,4.05397279 45.2226327,7.61257918 46.2977097,17.0290622 C47.395884,26.634053 44.2656672,31.8101601 41.3963455,35.14727 C38.5275488,38.4854271 37.4519468,40.749614 39.3637781,45.5172878 C41.2771841,50.2854852 43.9071332,57.0801404 43.9071332,57.0801404 L17.6149916,56.8418876 C17.6149916,56.8418876 19.4071365,52.1925547 19.4071365,50.2854852 C19.4071365,48.3784157 18.6585722,46.8530743 17.3761439,45.7560642 C15.7026354,44.3260239 13.9104905,44.9219176 11.5204389,44.9219176 C9.13091236,44.9219176 5.90410657,45.5172878 5.06735232,43.6107419 C4.231123,41.7036724 5.42641123,39.3195736 5.06735232,38.8425444 C4.70986822,38.3655152 4.58965697,37.8890097 4.11196163,37.6507569 C3.63426629,37.4125041 4.231123,36.5778339 4.231123,36.5778339 L4.70986822,35.9814165 C4.70986822,35.9814165 3.51405505,35.14727 3.27520738,34.5513762 C3.03635971,33.9554824 3.87311396,33.2402004 3.99227533,33.1213359 C4.11196163,33.0019477 4.11196163,31.9290247 4.11196163,31.9290247 C4.11196163,31.9290247 1.00536709,31.3336546 0.287774202,29.6643142 L0.287774202,29.6643142 Z"></path>
                        </g>
                    </g>
                </g>
                <g id="Oval-22-Copy-3-+-head" transform="translate(304.000000, 204.000000) scale(-1, 1) translate(-304.000000, -204.000000) translate(264.000000, 164.000000)">
                    <mask id="mask-12" fill="white">
                        <use xlink:href="#path-11"></use>
                    </mask>
                    <use id="Mask" fill="#88EBFF" xlink:href="#path-11"></use>
                    <polygon id="Path-142" fill="#77CFE1" mask="url(#mask-12)" points="33.4025 66.7675 71.1415677 104.506568 106.502585 67.86555 55.3644968 16.7274615 44.04 36.6125"></polygon>
                    <g id="head" mask="url(#mask-12)" fill="#FFFFFF">
                        <g transform="translate(14.720000, 11.200000)" id="Stroke-175">
                            <path d="M0.287774202,29.6643142 L5.18756356,21.9161242 C5.18756356,21.9161242 5.44793377,20.1258248 4.94871589,15.8372747 C4.3508093,10.7114363 10.445362,3.44079915 15.5829491,1.77145877 C20.7215861,0.102642031 30.0424196,-0.612116316 35.0618953,1.6525942 C40.3842613,4.05397279 45.2226327,7.61257918 46.2977097,17.0290622 C47.395884,26.634053 44.2656672,31.8101601 41.3963455,35.14727 C38.5275488,38.4854271 37.4519468,40.749614 39.3637781,45.5172878 C41.2771841,50.2854852 43.9071332,57.0801404 43.9071332,57.0801404 L17.6149916,56.8418876 C17.6149916,56.8418876 19.4071365,52.1925547 19.4071365,50.2854852 C19.4071365,48.3784157 18.6585722,46.8530743 17.3761439,45.7560642 C15.7026354,44.3260239 13.9104905,44.9219176 11.5204389,44.9219176 C9.13091236,44.9219176 5.90410657,45.5172878 5.06735232,43.6107419 C4.231123,41.7036724 5.42641123,39.3195736 5.06735232,38.8425444 C4.70986822,38.3655152 4.58965697,37.8890097 4.11196163,37.6507569 C3.63426629,37.4125041 4.231123,36.5778339 4.231123,36.5778339 L4.70986822,35.9814165 C4.70986822,35.9814165 3.51405505,35.14727 3.27520738,34.5513762 C3.03635971,33.9554824 3.87311396,33.2402004 3.99227533,33.1213359 C4.11196163,33.0019477 4.11196163,31.9290247 4.11196163,31.9290247 C4.11196163,31.9290247 1.00536709,31.3336546 0.287774202,29.6643142 L0.287774202,29.6643142 Z"></path>
                        </g>
                    </g>
                </g>
                <g id="Group-16" transform="translate(230.000000, 83.000000)">
                    <path d="M9.33333333,0 L17.8888889,5.44444444 L0.777777778,5.44444444 L9.33333333,0 Z M9.33333333,10.8888889 L17.8888889,5.44444444 L0.777777778,5.44444444 L9.33333333,10.8888889 Z" id="Combined-Shape" fill="#E8BF56"></path>
                    <polygon id="Path-563" fill="#EDD460" points="9.32849121 10.8998074 17.9008993 5.45460341 17.9008993 16.3121134 9.32849121 20.7841458"></polygon>
                    <polygon id="Path-563" fill="#D49A37" transform="translate(5.043189, 13.124976) scale(-1, 1) translate(-5.043189, -13.124976) " points="0.759738498 10.9126723 9.32663981 5.47743734 9.32663981 16.3151042 0.759738498 20.7725152"></polygon>
                </g>
                <circle id="Oval-28" stroke="#E6E6E6" stroke-width="2" fill="#FFFFFF" cx="18.5" cy="136.5" r="17.5"></circle>
                <g id="//-iPhone-6" transform="translate(18.866667, 135.866667) rotate(-90.000000) translate(-18.866667, -135.866667) translate(12.866667, 124.866667)">
                    <rect id="main-body" fill="#3D3D3D" x="0" y="-1.13686838e-13" width="11.4230769" height="22" rx="2"></rect>
                    <rect id="home-button" fill="#2B2B2B" x="5.07692308" y="19.8846154" width="1.26923077" height="1.26923077" rx="6"></rect>
                    <g id="Group-15" transform="translate(0.666667, 2.666667)">
                        <mask id="mask-14" fill="white">
                            <use xlink:href="#path-13"></use>
                        </mask>
                        <use id="screen" fill="#73D975" xlink:href="#path-13"></use>
                    </g>
                </g>
                <circle id="Oval-20" stroke="#97E846" stroke-width="2" cx="41" cy="9" r="9"></circle>
                <circle id="Oval-20" stroke="#97E846" stroke-width="2" cx="238" cy="10" r="5"></circle>
                <circle id="Oval-20" stroke="#97E846" stroke-width="2" cx="238" cy="138" r="5"></circle>
                <circle id="Oval-20" stroke="#97E846" stroke-width="2" cx="154" cy="138" r="5"></circle>
                <circle id="Oval-25" fill="#1AC2FF" cx="90.5" cy="154.5" r="5.5"></circle>
                <circle id="Oval-25" fill="#FF6765" cx="222.5" cy="26.5" r="5.5"></circle>
                <circle id="Oval-27" fill="#E6E6E6" cx="41" cy="9" r="6"></circle>
                <g id="WIFI" transform="translate(314.000000, 2.000000)" fill="#19C2FF">
                    <path d="M22.0996344,4.03225532 C22.373828,4.16789362 22.7024946,4.08614894 22.8395914,3.84308511 C22.9766882,3.57180851 22.8936989,3.247 22.6480215,3.1113617 C19.2765376,1.18385106 15.437828,0.180851064 11.5431828,0.180851064 C7.62184946,0.180851064 3.78313978,1.18385106 0.384236559,3.1113617 C0.110043011,3.247 0.0270537634,3.60002128 0.192666667,3.84308511 C0.302709677,4.00548936 0.466860215,4.1143617 0.658430108,4.1143617 C0.741053763,4.1143617 0.849634409,4.08759574 0.932623656,4.03225532 C4.16701075,2.24219149 7.84156989,1.26595745 11.5431828,1.26595745 C15.2447957,1.26595745 18.8923011,2.21542553 22.0996344,4.03225532 L22.0996344,4.03225532 Z" id="Fill-1"></path>
                    <path d="M20.2632688,7.04487234 C20.4003656,6.77359574 20.2903226,6.44842553 20.0431828,6.31278723 C17.4383441,4.95640426 14.5052043,4.25144681 11.5702366,4.25144681 C8.60858065,4.25144681 5.64802151,4.98317021 3.0431828,6.33955319 C2.76898925,6.47519149 2.65894624,6.8003617 2.82346237,7.0716383 C2.93313978,7.26080851 3.12470968,7.36968085 3.31737634,7.36968085 C3.40036559,7.36968085 3.48152688,7.34291489 3.56451613,7.31614894 C6.03225806,6.04151064 8.80124731,5.36331915 11.5702366,5.36331915 C14.3666452,5.36331915 17.0541075,6.01474468 19.5492688,7.28902128 C19.796043,7.39644681 20.126172,7.31614894 20.2632688,7.04487234 L20.2632688,7.04487234 Z" id="Fill-2"></path>
                    <path d="M17.1370968,10.598234 C17.3571828,10.598234 17.5483871,10.4893617 17.6584301,10.2730638 C17.7955269,10.0017872 17.6584301,9.67697872 17.3842366,9.56810638 C15.5475054,8.7542766 13.5996344,8.3473617 11.5716989,8.3473617 C9.54266667,8.3473617 7.56883871,8.78104255 5.70395699,9.59487234 C5.42976344,9.73051064 5.29266667,10.0289149 5.42976344,10.3001915 C5.5123871,10.4893617 5.73101075,10.625 5.92367742,10.625 C6.00666667,10.625 6.08782796,10.598234 6.14376344,10.5714681 C7.84303226,9.81117021 9.68086022,9.40425532 11.5446452,9.40425532 C13.4098925,9.40425532 15.2192043,9.78440426 16.9184731,10.5428936 C16.9729462,10.5714681 17.0541075,10.598234 17.1370968,10.598234 L17.1370968,10.598234 Z" id="Fill-3"></path>
                    <path d="M14.9706022,13.5269362 C15.0535914,13.2288936 14.9164946,12.9308511 14.6137849,12.8487447 C12.6129032,12.2258936 10.4193548,12.2258936 8.41701075,12.8773191 C8.11576344,12.9590638 7.97866667,13.284234 8.06019355,13.5555106 C8.1428172,13.7728936 8.36144086,13.9352979 8.58152688,13.9352979 C8.63563441,13.9352979 8.6912043,13.9352979 8.74567742,13.9085319 C10.5279355,13.3392128 12.4743441,13.3392128 14.2566022,13.881766 C14.5593118,13.9891915 14.8894409,13.8267872 14.9706022,13.5269362 L14.9706022,13.5269362 Z" id="Fill-4"></path>
                </g>
            </g>
        </g>
    </g>
</svg>