<?xml version="1.0" encoding="UTF-8" standalone="no"?>
<svg width="372px" height="273px" viewBox="0 0 372 273" version="1.1" xmlns="http://www.w3.org/2000/svg" xmlns:xlink="http://www.w3.org/1999/xlink">
    <!-- Generator: Sketch 3.7.2 (28276) - http://www.bohemiancoding.com/sketch -->
    <title>ILLUSTRATION</title>
    <desc>Created with Sketch.</desc>
    <defs>
        <rect id="path-1" x="132" y="107" width="12" height="12"></rect>
        <mask id="mask-2" maskContentUnits="userSpaceOnUse" maskUnits="objectBoundingBox" x="0" y="0" width="12" height="12" fill="white">
            <use xlink:href="#path-1"></use>
        </mask>
        <path d="M5.29157825,13.9432364 C5.98023873,11.321528 6.52914758,0 6.52914758,0 L34.7016217,0 C34.7016217,0 35.2856513,11.2768309 36.1097561,13.9432364 C36.9338609,16.6096419 39.2092175,18.0115218 40.5865385,19.0407516 L0.644230769,19.0407516 C2.02155172,18.0115218 4.60291777,16.5649448 5.29157825,13.9432364 Z" id="path-3"></path>
        <rect id="path-5" x="7.21538462" y="7.20460872" width="119.569231" height="73.075317"></rect>
        <path d="M5.88871473,15.9788108 C6.67319749,12.974359 7.29467085,0 7.29467085,0 L39.3871473,0 C39.3871473,0 40.0486283,12.9231366 40.9874015,15.9788108 C41.9261747,19.0344851 44.5219436,20.6410256 46.0909091,21.8205128 L0.590909091,21.8205128 C2.15987461,20.6410256 5.10423197,18.9832627 5.88871473,15.9788108 Z" id="path-7"></path>
        <rect id="path-9" x="0" y="0" width="113.454545" height="66.0512821"></rect>
        <rect id="path-11" x="0.538461538" y="0.884615385" width="29.1923077" height="48.2307692"></rect>
        <rect id="path-13" x="27.2985075" y="72.8555556" width="4.40298507" height="4.38888889" rx="6"></rect>
        <mask id="mask-14" maskContentUnits="userSpaceOnUse" maskUnits="objectBoundingBox" x="0" y="0" width="4.40298507" height="4.38888889" fill="white">
            <use xlink:href="#path-13"></use>
        </mask>
    </defs>
    <g id="Home" stroke="none" stroke-width="1" fill="none" fill-rule="evenodd">
        <g id="Home-page" transform="translate(-1216.000000, -171.000000)">
            <g id="HEADER">
                <g id="ILLUSTRATION" transform="translate(1216.000000, 172.000000)">
                    <g id="Group-13" transform="translate(13.000000, 0.000000)" stroke-width="2">
                        <path d="M9,86.5 L9,261.539993" id="Line" stroke="#FFFFFF" stroke-linecap="square"></path>
                        <path d="M9.5,261 L317.5,261" id="Line" stroke="#FFFFFF" stroke-linecap="square"></path>
                        <path d="M125,127.5 L125,95.3596826" id="Line" stroke="#FFFFFF" stroke-linecap="square"></path>
                        <path d="M96,20.5 L96,6.5" id="Line" stroke="#FFFFFF" stroke-linecap="square"></path>
                        <path d="M96.5,6 L311.502319,6" id="Line" stroke="#FFFFFF" stroke-linecap="round" stroke-linejoin="round" stroke-dasharray="2,4,2,4"></path>
                        <path d="M312,6.5 L312,57.7445107" id="Line" stroke="#FFFFFF" stroke-linecap="square"></path>
                        <path d="M193,96.5 L193,215.516808" id="Line" stroke="#FFFFFF" stroke-linecap="round" stroke-linejoin="round" stroke-dasharray="2,4,2,4"></path>
                        <path d="M193.5,216 L219.5,216" id="Line" stroke="#FFFFFF" stroke-linecap="round" stroke-linejoin="round" stroke-dasharray="2,4,2,4"></path>
                        <path d="M167.5,161 L246.017517,161" id="Line" stroke="#FFFFFF" stroke-linecap="square"></path>
                        <path d="M246,159.5 L246,143.46878" id="Line" stroke="#FFFFFF" stroke-linecap="square"></path>
                        <circle id="Oval-24" stroke="#97E846" cx="245.5" cy="160.5" r="6.5"></circle>
                        <circle id="Oval-20" stroke="#97E846" cx="9" cy="261" r="9"></circle>
                        <path d="M311.5,13 C315.089851,13 318,10.0898509 318,6.5 C318,2.91014913 315.089851,0 311.5,0 C307.910149,0 305,2.91014913 305,6.5 C305,10.0898509 307.910149,13 311.5,13 Z" id="Oval-21" stroke="#97E846"></path>
                        <circle id="Oval-22" stroke="#97E846" cx="96.5" cy="6.5" r="5.5"></circle>
                        <circle id="Oval-23" stroke="#97E846" cx="193" cy="216" r="6"></circle>
                    </g>
                    <circle id="Oval-25" fill="#1AC2FF" cx="274.5" cy="5.5" r="5.5"></circle>
                    <circle id="Oval-25" fill="#FF6765" cx="22.5" cy="191.5" r="5.5"></circle>
                    <use id="Rectangle-279" stroke="#FFFFFF" mask="url(#mask-2)" stroke-width="4" xlink:href="#path-1"></use>
                    <circle id="Oval-27" fill="#FFFFFF" cx="22" cy="261" r="6"></circle>
                    <g id="Group-14" transform="translate(0.000000, 22.000000)">
                        <g id="//-Thunderbolt-Display" transform="translate(49.000000, 104.000000)">
                            <g id="::-stand" transform="translate(46.384615, 87.484534)">
                                <rect id="Rectangle-80" fill="#D9D9D9" x="0" y="20.5845964" width="41.2307692" height="1.02922982"></rect>
                                <path d="M0.315197747,19.7584379 C0.466420627,19.3620707 0.935269302,19.0407516 1.35335282,19.0407516 L39.8774164,19.0407516 C40.2995508,19.0407516 40.7666723,19.3681614 40.9155715,19.7584379 L41.2307692,20.5845964 L-3.26966781e-17,20.5845964 L0.315197747,19.7584379 Z" id="Rectangle-77" fill="#D8D8D8"></path>
                                <mask id="mask-4" fill="white">
                                    <use xlink:href="#path-3"></use>
                                </mask>
                                <use id="Mask" fill="#D8D8D8" xlink:href="#path-3"></use>
                            </g>
                            <g id="::-base" fill="#3C3C3C">
                                <rect id="dark-bezel" x="0" y="0" width="134" height="87.4845345" rx="6"></rect>
                            </g>
                            <mask id="mask-6" fill="white">
                                <use xlink:href="#path-5"></use>
                            </mask>
                            <use id="wallpaper" fill="#F56867" xlink:href="#path-5"></use>
                            <g id="::-screen" mask="url(#mask-6)">
                                <g transform="translate(7.215385, 7.204609)">
                                    <g id="::-contents" stroke-width="1" fill="none" transform="translate(37.107692, 66.899938)"></g>
                                    <path d="M68.8416336,52.1739913 C79.6583003,31.7814579 71.7089669,20.8760579 60.2851003,20.8760579 C48.6346336,20.8760579 40.8833003,32.2023913 51.7285669,52.1769246 C55.3893669,58.9147913 47.7751669,60.5075913 40.0612336,62.2888579 C33.6871003,63.7584579 32.8650336,66.7607246 32.7851003,71.8427246 C32.7506336,74.0251246 34.5583003,75.7953913 36.7414336,75.7953913 L83.8236336,75.7953913 C86.0089669,75.7953913 87.8166336,74.0221913 87.7821669,71.8427246 C87.7051669,66.7577913 86.8831003,63.7555246 80.5089669,62.2859246 C72.6256336,60.4672579 65.2864336,58.8744579 68.8416336,52.1739913 Z" id="Page-1" fill="#E54C4A"></path>
                                </g>
                            </g>
                        </g>
                        <g id="//-MacBook-Pro-15" transform="translate(84.000000, 0.000000)">
                            <rect id="Rectangle-117" fill="#3D3D3D" x="10.05" y="0" width="113.9" height="69.6428571" rx="4"></rect>
                            <g id="::-base" transform="translate(0.000000, 69.642857)" fill="#D3D3D3">
                                <rect id="Mask" x="0" y="0" width="134" height="5.35714286"></rect>
                            </g>
                            <g id="::-screen" transform="translate(14.740000, 4.687500)" fill="#F56867">
                                <rect id="wallpaper" x="0" y="0" width="104.52" height="60.9375"></rect>
                            </g>
                            <ellipse id="webcam" fill="#5C5C5C" cx="67.335" cy="2.34375" rx="1.005" ry="1.00446429"></ellipse>
                        </g>
                        <g id="//-iMac-21.5" transform="translate(242.000000, 26.000000)">
                            <g id="::-stand" transform="translate(41.363636, 90.230769)">
                                <rect id="Rectangle-80" fill="#D9D9D9" x="0" y="23.5897436" width="47.2727273" height="1.17948718"></rect>
                                <path d="M0.361386834,22.6429742 C0.534769918,22.1887413 1.07232369,21.8205128 1.55167317,21.8205128 L45.7210541,21.8205128 C46.205048,21.8205128 46.7406216,22.1957212 46.9113404,22.6429742 L47.2727273,23.5897436 L-3.74880502e-17,23.5897436 L0.361386834,22.6429742 Z" id="Rectangle-77" fill="#D9D9D9"></path>
                                <mask id="mask-8" fill="white">
                                    <use xlink:href="#path-7"></use>
                                </mask>
                                <use id="Mask" fill="#D8D8D8" xlink:href="#path-7"></use>
                                <rect id="Rectangle-77" fill="#C1C1C1" mask="url(#mask-8)" x="5.90909091" y="7.66666667" width="35.4545455" height="1.17948718"></rect>
                            </g>
                            <g id="::-base">
                                <rect id="screen-bg" fill="#D8D8D8" x="0" y="82.5641026" width="130" height="15.3333333"></rect>
                                <rect id="dark-bezel" fill="#3C3C3C" x="0" y="0" width="130" height="82.5641026" rx="6"></rect>
                            </g>
                            <g id="::-screen" transform="translate(8.272727, 8.256410)">
                                <mask id="mask-10" fill="white">
                                    <use xlink:href="#path-9"></use>
                                </mask>
                                <use id="Rectangle-71" fill="#E9D369" xlink:href="#path-9"></use>
                                <g id="::-contents" mask="url(#mask-10)">
                                    <g transform="translate(30.727273, 58.974359)"></g>
                                </g>
                                <g id="Page-1" mask="url(#mask-10)" fill="#E3BE4D">
                                    <g transform="translate(20.000000, 26.000000)">
                                        <path d="M42.5302609,27.4433333 C43.8002319,26.1022222 44.6736812,24.4533333 44.9358261,23.4811111 C45.1076522,22.8555556 45.2277101,22.1966667 45.305913,21.6966667 C45.8434203,21.4322222 46.2608696,20.9855556 46.4888696,20.4255556 C46.8071884,19.6133333 46.9790145,17.8733333 46.9834203,17.7955556 C47.1211014,16.4144444 46.6397681,15.6166667 46.5968116,15.5688889 C47.1552464,9.96555556 45.3830145,8.85888889 44.200058,8.66333333 C43.7782029,8.58888889 43.1415652,8.43333333 42.8617971,8.11222222 C42.1954203,7.37444444 41.9024348,6.55333333 40.758029,6.61888889 C40.3361739,6.64111111 39.7645217,6.51 39.4417971,6.23222222 C39.0023188,5.85888889 38.3954203,5.43 37.9526377,5.43 C37.5098551,5.43 36.9547246,5.84666667 36.5548986,6.21111111 C36.2354783,6.49777778 35.6770435,6.64111111 35.2551884,6.61888889 C34.1107826,6.55333333 33.8133913,7.37444444 33.1514203,8.11222222 C32.8672464,8.43333333 32.2306087,8.58888889 31.8087536,8.66333333 C30.6213913,8.86333333 28.848058,9.96555556 29.412,15.5733333 C29.3646377,15.6244444 28.8877101,16.4233333 29.0253913,17.7955556 C29.0286957,17.8733333 29.2016232,19.6133333 29.519942,20.4255556 C29.747942,20.99 30.1609855,21.4322222 30.7028986,21.6966667 C30.78,22.1922222 30.9055652,22.86 31.0729855,23.4811111 C31.343942,24.4788889 32.2306087,26.1588889 33.5171014,27.5088889 L33.4862609,27.5088889 C33.310029,35.3033333 17.0944928,30.99 20.5530435,44.9911111 C21.6544928,48.9544444 35.8312464,49.6788889 38.0132174,49.5222222 C40.1896812,49.6788889 54.362029,48.9544444 55.4634783,44.9911111 C58.909913,31.0022222 42.7417391,35.2166667 42.5302609,27.4433333 L42.5302609,27.4433333 Z" id="Fill-1"></path>
                                        <path d="M62.2362899,21.6966667 C63.4622029,20.4033333 64.305913,18.8155556 64.5592464,17.8733333 C64.7233623,17.27 64.8390145,16.6322222 64.9172174,16.1544444 C65.4371014,15.8988889 65.8413333,15.4688889 66.0572174,14.9266667 C66.3623188,14.1444444 66.5297391,12.4611111 66.5341449,12.3866667 C66.6674203,11.05 66.2026087,10.2822222 66.1596522,10.2388889 C66.7026667,4.83111111 64.989913,3.76333333 63.8455072,3.57222222 C63.4412754,3.50222222 62.8255652,3.35111111 62.5546087,3.04222222 C61.9135652,2.33111111 61.6293913,1.53666667 60.5235362,1.60111111 C60.1193043,1.62333333 59.5641739,1.49777778 59.2546667,1.23222222 C58.8284058,0.872222222 58.2435362,0.46 57.8172754,0.46 C57.3910145,0.46 56.8535072,0.858888889 56.4668986,1.21111111 C56.1606957,1.48888889 55.6231884,1.62777778 55.2145507,1.60111111 C54.1086957,1.53666667 53.8245217,2.33111111 53.1834783,3.04222222 C52.9125217,3.35111111 52.2968116,3.50222222 51.8925797,3.57222222 C50.7481739,3.76333333 49.0365217,4.83111111 49.5784348,10.2388889 C49.5310725,10.2911111 49.0706667,11.0588889 49.203942,12.3833333 C49.2083478,12.4566667 49.3757681,14.1366667 49.6808696,14.9222222 C49.9055652,15.4644444 50.3009855,15.8944444 50.8263768,16.15 C50.9034783,16.6277778 51.0191304,17.2744444 51.1832464,17.8688889 C51.4409855,18.8322222 52.3012174,20.4555556 53.5403478,21.7533333 L53.5150145,21.7533333 C53.4246957,25.7988889 48.8547826,26.4666667 45.1726377,28.3155556 C45.6418551,29.1666667 46.8677681,29.7955556 49.3889855,30.8377778 C53.352,32.4744444 59.1555362,34.87 58.2523478,43.0122222 C61.2251594,43.0777778 73.7111884,42.27 74.7223188,38.6244444 C78.0431884,25.13 62.4389565,29.1966667 62.2362899,21.6966667 L62.2362899,21.6966667 Z" id="Fill-2"></path>
                                        <path d="M26.6418551,30.89 C29.2137391,29.8433333 30.4363478,29.2144444 30.8791304,28.3377778 C27.1881739,26.4711111 22.5929275,25.8155556 22.4982029,21.7533333 L22.4717681,21.7533333 C23.7153043,20.4555556 24.5678261,18.8277778 24.829971,17.8688889 C24.9929855,17.27 25.1097391,16.6277778 25.1868406,16.15 C25.7122319,15.8944444 26.1076522,15.4644444 26.3312464,14.9222222 C26.6374493,14.1411111 26.8048696,12.4566667 26.8048696,12.3833333 C26.9381449,11.0588889 26.4777391,10.2866667 26.4303768,10.2388889 C26.9722899,4.82666667 25.2606377,3.76333333 24.1162319,3.57222222 C23.7108986,3.50222222 23.0962899,3.35111111 22.8253333,3.04222222 C22.1842899,2.33111111 21.9001159,1.53666667 20.7942609,1.60111111 C20.3856232,1.62333333 19.8481159,1.48888889 19.5375072,1.21111111 C19.1508986,0.858888889 18.6122899,0.46 18.1871304,0.46 C17.7564638,0.46 17.176,0.872222222 16.7497391,1.23222222 C16.4402319,1.49777778 15.8851014,1.62777778 15.4808696,1.60111111 C14.3750145,1.53666667 14.0864348,2.33111111 13.4497971,3.04222222 C13.1788406,3.35111111 12.5631304,3.50222222 12.1588986,3.57222222 C11.0144928,3.76333333 9.30173913,4.83111111 9.84475362,10.2388889 C9.80069565,10.2822222 9.33698551,11.05 9.47026087,12.3866667 C9.47466667,12.4611111 9.63768116,14.1411111 9.94278261,14.9266667 C10.1630725,15.4688889 10.5628986,15.8988889 11.0827826,16.1544444 C11.1565797,16.6322222 11.2766377,17.27 11.4407536,17.8733333 C11.694087,18.8155556 12.5377971,20.4033333 13.7637101,21.6966667 C13.5577391,29.1966667 -2.0475942,25.13 1.29089855,38.6288889 C2.30643478,42.2744444 14.788058,43.0777778 17.7608696,43.0166667 C16.8576812,34.8744444 22.6744348,32.5088889 26.6418551,30.89 L26.6418551,30.89 Z" id="Fill-3"></path>
                                    </g>
                                </g>
                            </g>
                        </g>
                        <g id="//-iPhone-6" transform="translate(33.000000, 47.500000) rotate(-90.000000) translate(-33.000000, -47.500000) translate(15.500000, 14.500000)">
                            <rect id="main-body" fill="#3D3D3D" x="0" y="-1.8369702e-16" width="34.2692308" height="66" rx="2"></rect>
                            <rect id="home-button" fill="#2B2B2B" x="15.2307692" y="59.6538462" width="3.80769231" height="3.80769231" rx="6"></rect>
                            <g id="Group-15" transform="translate(2.000000, 8.000000)">
                                <mask id="mask-12" fill="white">
                                    <use xlink:href="#path-11"></use>
                                </mask>
                                <use id="screen" fill="#73D975" xlink:href="#path-11"></use>
                                <path d="M14.3446192,27.5196203 C18.6714403,19.3623157 15.4915934,15 10.9218836,15 C6.26153057,15 3.16088654,19.5306951 7.49914809,27.5207937 C8.96352037,30.2160366 5.91773163,30.8531793 2.83204814,31.5657114 C0.282303771,32.1535724 -0.0465346353,33.354522 -0.0785091102,35.3873945 C-0.0922962691,36.2603857 0.630796213,36.9685177 1.50408072,36.9685177 L20.3376331,36.9685177 C21.2117977,36.9685177 21.9348901,36.2592123 21.921103,35.3873945 C21.8903019,33.3533486 21.5614635,32.152399 19.0117191,31.5645381 C15.8582732,30.8370454 12.9224884,30.1999027 14.3446192,27.5196203 Z" id="Page-1" fill="#5DC95E" mask="url(#mask-12)" transform="translate(10.921297, 25.984259) rotate(-270.000000) translate(-10.921297, -25.984259) "></path>
                            </g>
                        </g>
                        <g id="//-iPad-" transform="translate(295.000000, 171.000000)">
                            <rect id="main-body" fill="#3D3D3D" x="0" y="0" width="59" height="79" rx="4"></rect>
                            <use id="home-button" stroke="#505050" mask="url(#mask-14)" stroke-width="2" xlink:href="#path-13"></use>
                            <rect id="screen" fill="#73D975" x="3.52238806" y="7.9" width="51.9552239" height="63.2"></rect>
                            <rect id="camera" fill="#565656" x="29.9402985" y="2.63333333" width="2.64179104" height="2.63333333" rx="6"></rect>
                            <rect id="microphone" fill="#747474" x="27.2985075" y="3.51111111" width="0.880597015" height="0.877777778" rx="6"></rect>
                        </g>
                        <polygon id="Triangle-2" fill="#5DCA5E" transform="translate(326.000000, 210.000000) rotate(-270.000000) translate(-326.000000, -210.000000) " points="326 203 333 217 319 217"></polygon>
                        <g id="//-iPhone-6" transform="translate(227.000000, 165.000000)">
                            <rect id="main-body" fill="#3D3D3D" x="0" y="0" width="27" height="52" rx="2"></rect>
                            <rect id="home-button" fill="#2B2B2B" x="12" y="47" width="3" height="3" rx="6"></rect>
                            <rect id="screen" fill="#EDD460" x="2" y="7" width="23" height="38"></rect>
                        </g>
                    </g>
                    <g id="Page-1" transform="translate(233.000000, 206.000000)" fill="#D7A92D">
                        <path d="M14.2844737,6.88315789 L11.2005263,6.88315789 C10.8613158,6.88315789 10.5839474,7.16078947 10.5839474,7.5 C10.5839474,7.83921053 10.8613158,8.11684211 11.2005263,8.11684211 L14.2844737,8.11684211 C14.6236842,8.11684211 14.9013158,7.83921053 14.9013158,7.5 C14.9013158,7.16078947 14.6236842,6.88315789 14.2844737,6.88315789 L14.2844737,6.88315789 Z" id="Fill-1"></path>
                        <path d="M4.41605263,7.5 C4.41605263,7.16078947 4.13868421,6.88315789 3.79947368,6.88315789 L0.715526316,6.88315789 C0.376315789,6.88315789 0.0986842105,7.16078947 0.0986842105,7.5 C0.0986842105,7.83921053 0.376315789,8.11684211 0.715526316,8.11684211 L3.79947368,8.11684211 C4.13868421,8.11684211 4.41605263,7.83921053 4.41605263,7.5 L4.41605263,7.5 Z" id="Fill-2"></path>
                        <path d="M7.5,10.5839474 C7.16078947,10.5839474 6.88315789,10.8613158 6.88315789,11.2005263 L6.88315789,14.2844737 C6.88315789,14.6236842 7.16078947,14.9013158 7.5,14.9013158 C7.83921053,14.9013158 8.11684211,14.6236842 8.11684211,14.2844737 L8.11684211,11.2005263 C8.11684211,10.8613158 7.83921053,10.5839474 7.5,10.5839474 L7.5,10.5839474 Z" id="Fill-3"></path>
                        <path d="M7.5,0.0986842105 C7.16078947,0.0986842105 6.88315789,0.376315789 6.88315789,0.715526316 L6.88315789,3.79947368 C6.88315789,4.13868421 7.16078947,4.41605263 7.5,4.41605263 C7.83921053,4.41605263 8.11684211,4.13868421 8.11684211,3.79947368 L8.11684211,0.715526316 C8.11684211,0.376315789 7.83921053,0.0986842105 7.5,0.0986842105 L7.5,0.0986842105 Z" id="Fill-4"></path>
                        <path d="M10.1715789,5.95815789 C10.3413158,6.25526316 10.7184211,6.35473684 11.0155263,6.18526316 L13.6873684,4.64342105 C13.9844737,4.47368421 14.0842105,4.09631579 13.9144737,3.79947368 C13.7447368,3.50236842 13.3676316,3.40263158 13.0705263,3.57210526 L10.3989474,5.11421053 C10.1018421,5.28789474 10.0021053,5.66105263 10.1715789,5.95815789 L10.1715789,5.95815789 Z" id="Fill-5"></path>
                        <path d="M4.82842105,9.04184211 C4.65868421,8.74473684 4.28157895,8.64526316 3.98447368,8.81473684 L1.31263158,10.3565789 C1.01552632,10.5263158 0.915789474,10.9036842 1.08552632,11.2005263 C1.25526316,11.4976316 1.63236842,11.5973684 1.92947368,11.4278947 L4.60105263,9.88578947 C4.89815789,9.71210526 4.99789474,9.33894737 4.82842105,9.04184211 L4.82842105,9.04184211 Z" id="Fill-6"></path>
                        <path d="M9.88578947,10.3947368 C9.71631579,10.0976316 9.33894737,9.99789474 9.04184211,10.1676316 C8.74473684,10.3371053 8.64526316,10.7144737 8.81473684,11.0115789 L10.3565789,13.6831579 C10.5263158,13.9802632 10.9036842,14.08 11.2005263,13.9102632 C11.4976316,13.7407895 11.5973684,13.3634211 11.4278947,13.0663158 L9.88578947,10.3947368 Z" id="Fill-7"></path>
                        <path d="M4.64342105,1.31684211 C4.47368421,1.01973684 4.09631579,0.92 3.79947368,1.08973684 C3.50236842,1.25921053 3.40263158,1.63657895 3.57210526,1.93368421 L5.11421053,4.60526316 C5.28368421,4.90236842 5.66105263,5.00210526 5.95815789,4.83236842 C6.25526316,4.66289474 6.35473684,4.28552632 6.18526316,3.98842105 L4.64342105,1.31684211 Z" id="Fill-8"></path>
                        <path d="M9.04184211,4.82842105 C9.33894737,4.99789474 9.71210526,4.89815789 9.88578947,4.60105263 L11.4278947,1.92947368 C11.5973684,1.63236842 11.4976316,1.25921053 11.2005263,1.08552632 C10.9036842,0.915789474 10.5305263,1.01552632 10.3565789,1.31263158 L8.81473684,3.98447368 C8.64526316,4.28157895 8.74473684,4.65868421 9.04184211,4.82842105 L9.04184211,4.82842105 Z" id="Fill-9"></path>
                        <path d="M5.95815789,10.1715789 C5.66105263,10.0021053 5.28789474,10.1018421 5.11421053,10.3989474 L3.57210526,13.0705263 C3.40263158,13.3676316 3.50236842,13.7407895 3.79947368,13.9144737 C4.09631579,14.0842105 4.46947368,13.9844737 4.64342105,13.6873684 L6.18526316,11.0155263 C6.35473684,10.7184211 6.25526316,10.3413158 5.95815789,10.1715789 L5.95815789,10.1715789 Z" id="Fill-10"></path>
                        <path d="M13.6831579,10.3565789 L11.0115789,8.81473684 C10.7144737,8.64526316 10.3413158,8.74473684 10.1676316,9.04184211 C9.99789474,9.33894737 10.0976316,9.71210526 10.3947368,9.88578947 L13.0663158,11.4278947 C13.3634211,11.5973684 13.7365789,11.4976316 13.9102632,11.2005263 C14.08,10.9036842 13.9802632,10.5305263 13.6831579,10.3565789 L13.6831579,10.3565789 Z" id="Fill-11"></path>
                        <path d="M1.31684211,4.64342105 L3.98842105,6.18526316 C4.28552632,6.35473684 4.65868421,6.25526316 4.83236842,5.95815789 C5.00605263,5.66105263 4.90236842,5.28789474 4.60526316,5.11421053 L1.93368421,3.57210526 C1.63657895,3.40263158 1.26342105,3.50236842 1.08973684,3.79947368 C0.92,4.09631579 1.01973684,4.46947368 1.31684211,4.64342105 L1.31684211,4.64342105 Z" id="Fill-12"></path>
                    </g>
                    <polygon id="Triangle-2" fill="#F24945" transform="translate(153.000000, 57.000000) rotate(-270.000000) translate(-153.000000, -57.000000) " points="153 47 163 67 143 67"></polygon>
                    <path id="Path-562" stroke="#979797"></path>
                    <g id="Group-16" transform="translate(155.000000, 249.000000)">
                        <path d="M9.33333333,0 L17.8888889,5.44444444 L0.777777778,5.44444444 L9.33333333,0 Z M9.33333333,10.8888889 L17.8888889,5.44444444 L0.777777778,5.44444444 L9.33333333,10.8888889 Z" id="Combined-Shape" fill="#E8BF56"></path>
                        <polygon id="Path-563" fill="#EDD460" points="9.32849121 10.8998074 17.9008993 5.45460341 17.9008993 16.3121134 9.32849121 20.7841458"></polygon>
                        <polygon id="Path-563" fill="#D49A37" transform="translate(5.043189, 13.124976) scale(-1, 1) translate(-5.043189, -13.124976) " points="0.759738498 10.9126723 9.32663981 5.47743734 9.32663981 16.3151042 0.759738498 20.7725152"></polygon>
                    </g>
                    <g id="Page-1" transform="translate(10.000000, 9.000000)" fill="#19C2FF">
                        <path d="M40.2993333,7.35293617 C40.7993333,7.6002766 41.3986667,7.45121277 41.6486667,7.00797872 C41.8986667,6.51329787 41.7473333,5.921 41.2993333,5.67365957 C35.1513333,2.15878723 28.1513333,0.329787234 21.0493333,0.329787234 C13.8986667,0.329787234 6.89866667,2.15878723 0.700666667,5.67365957 C0.200666667,5.921 0.0493333333,6.56474468 0.351333333,7.00797872 C0.552,7.30412766 0.851333333,7.50265957 1.20066667,7.50265957 C1.35133333,7.50265957 1.54933333,7.45385106 1.70066667,7.35293617 C7.59866667,4.08870213 14.2993333,2.30851064 21.0493333,2.30851064 C27.7993333,2.30851064 34.4506667,4.03989362 40.2993333,7.35293617 L40.2993333,7.35293617 Z" id="Fill-1"></path>
                        <path d="M36.9506667,12.8465319 C37.2006667,12.3518511 37,11.7588936 36.5493333,11.5115532 C31.7993333,9.03814894 26.4506667,7.7526383 21.0986667,7.7526383 C15.698,7.7526383 10.2993333,9.08695745 5.54933333,11.5603617 C5.04933333,11.8077021 4.84866667,12.4006596 5.14866667,12.8953404 C5.34866667,13.2402979 5.698,13.4388298 6.04933333,13.4388298 C6.20066667,13.4388298 6.34866667,13.3900213 6.5,13.3412128 C11,11.0168723 16.0493333,9.78017021 21.0986667,9.78017021 C26.198,9.78017021 31.0986667,10.9680638 35.6486667,13.2917447 C36.0986667,13.4876383 36.7006667,13.3412128 36.9506667,12.8465319 L36.9506667,12.8465319 Z" id="Fill-2"></path>
                        <path d="M31.25,19.3261915 C31.6513333,19.3261915 32,19.1276596 32.2006667,18.733234 C32.4506667,18.2385532 32.2006667,17.6462553 31.7006667,17.4477234 C28.3513333,15.9636809 24.7993333,15.2216596 21.1013333,15.2216596 C17.4013333,15.2216596 13.802,16.0124894 10.4013333,17.4965319 C9.90133333,17.7438723 9.65133333,18.2880213 9.90133333,18.7827021 C10.052,19.1276596 10.4506667,19.375 10.802,19.375 C10.9533333,19.375 11.1013333,19.3261915 11.2033333,19.277383 C14.302,17.8909574 17.6533333,17.1489362 21.052,17.1489362 C24.4533333,17.1489362 27.7526667,17.8421489 30.8513333,19.2252766 C30.9506667,19.277383 31.0986667,19.3261915 31.25,19.3261915 L31.25,19.3261915 Z" id="Fill-3"></path>
                        <path d="M27.2993333,24.666766 C27.4506667,24.1232766 27.2006667,23.5797872 26.6486667,23.4300638 C23,22.2942766 19,22.2942766 15.3486667,23.4821702 C14.7993333,23.631234 14.5493333,24.2241915 14.698,24.7188723 C14.8486667,25.1152766 15.2473333,25.4114255 15.6486667,25.4114255 C15.7473333,25.4114255 15.8486667,25.4114255 15.948,25.362617 C19.198,24.3244468 22.7473333,24.3244468 25.9973333,25.3138085 C26.5493333,25.5097021 27.1513333,25.2135532 27.2993333,24.666766 L27.2993333,24.666766 Z" id="Fill-4"></path>
                    </g>
                </g>
            </g>
        </g>
    </g>
</svg>